<svg version="1.1" id="Layer_1" xmlns="http://www.w3.org/2000/svg" xmlns:xlink="http://www.w3.org/1999/xlink" x="0px" y="0px"
	 width="100%" viewBox="0 0 256 256" enable-background="new 0 0 256 256" xml:space="preserve">
<path fill="#BCC651" opacity="1.000000" stroke="none" 
	d="
M171.000000,257.000000 
	C114.000000,257.000000 57.500008,257.000000 1.000008,257.000000 
	C1.000005,171.666672 1.000005,86.333351 1.000003,1.000019 
	C86.333321,1.000013 171.666641,1.000013 257.000000,1.000006 
	C257.000000,86.333313 257.000000,171.666626 257.000000,256.999969 
	C228.500000,257.000000 200.000000,257.000000 171.000000,257.000000 
M174.929825,134.110901 
	C174.047852,134.357239 172.681000,134.327637 172.359314,134.892853 
	C169.334808,140.207138 174.284210,149.291260 180.306549,149.625549 
	C182.291168,149.735703 184.284256,149.711761 186.273560,149.716736 
	C197.548050,149.744873 197.548065,149.741516 199.229340,138.242783 
	C200.376968,130.393799 195.377121,125.392387 187.628708,126.799133 
	C184.723984,127.326508 181.910294,128.337112 179.022629,128.981934 
	C176.288437,129.592484 175.548187,131.202820 175.991653,133.991592 
	C175.991653,133.991592 175.737183,134.263214 174.929825,134.110901 
M44.857613,161.795776 
	C44.985931,161.941772 45.114250,162.087769 45.132626,162.935104 
	C43.487465,166.332031 41.842300,169.728943 40.197140,173.125870 
	C40.799427,173.599854 41.401714,174.073837 42.004002,174.547836 
	C43.917667,173.040176 45.831337,171.532516 47.734455,170.033173 
	C48.134129,173.378555 48.333691,176.704315 49.006931,179.931259 
	C49.308235,181.375443 50.559612,182.621414 51.379841,183.957336 
	C52.127556,182.369583 53.486759,180.788345 53.503819,179.192795 
	C53.548000,175.058853 52.310844,170.816635 52.902626,166.812332 
	C53.399414,163.450775 55.416027,160.130615 57.412231,157.243225 
	C58.590836,155.538437 61.038700,154.711136 62.915764,153.489227 
	C60.781906,152.705170 58.648052,151.921097 56.236446,151.034973 
	C56.523613,149.643555 57.105717,147.744797 57.252914,145.812897 
	C57.366932,144.316452 56.937042,142.778564 56.748940,141.259109 
	C55.181683,141.890732 53.614422,142.522354 52.007431,143.169983 
	C52.007431,142.387039 52.274208,141.002380 51.954079,139.770187 
	C51.195679,136.851120 53.972507,131.378220 49.599415,131.445419 
	C44.697109,131.520737 47.686069,137.022263 47.236721,140.052200 
	C46.710979,143.597229 47.113792,147.279953 47.113792,150.902954 
	C45.318321,148.773712 44.818340,146.498596 43.829144,144.460999 
	C43.208954,143.183487 41.853378,142.262985 40.827751,141.182312 
	C40.297184,142.710709 39.064110,144.401535 39.372639,145.735916 
	C40.179089,149.223724 41.659668,152.555664 42.674950,155.399307 
	C40.438702,157.546707 36.368885,160.551559 36.733696,161.254303 
	C38.768879,165.174713 41.794456,161.261597 44.857613,161.795776 
M74.333000,85.245880 
	C74.898720,85.501389 75.464439,85.756897 75.532936,85.787834 
	C74.136482,87.618187 72.835396,89.323524 71.534309,91.028862 
	C73.761169,91.498726 75.983452,92.345177 78.215691,92.372322 
	C87.189964,92.481392 96.170036,92.441330 105.141487,92.207817 
	C107.205093,92.154114 109.243027,91.114723 111.292778,90.528946 
	C110.143867,88.904610 108.994949,87.280281 107.419968,85.053558 
	C108.369919,84.702042 109.640305,84.399818 110.735115,83.784958 
	C112.150269,82.990181 113.425171,81.945686 114.760460,81.008720 
	C113.403946,80.058266 112.098831,79.018150 110.667778,78.197685 
	C110.017097,77.824638 109.117188,77.886299 108.747726,77.822662 
	C108.221649,73.917976 106.734901,70.177727 107.498390,66.973679 
	C108.921478,61.001541 105.461876,61.779018 102.065155,61.999146 
	C95.646149,62.415146 89.234604,62.946163 82.153656,63.479572 
	C83.024673,61.355080 83.908699,60.041874 84.043144,58.655960 
	C84.208450,56.951893 83.748299,55.187157 83.558502,53.448647 
	C82.065865,54.384434 80.068504,54.982880 79.175278,56.319294 
	C76.503189,60.317230 74.147217,64.543251 71.913879,68.809044 
	C71.066536,70.427513 70.362083,72.490456 70.657440,74.162735 
	C70.782463,74.870644 73.651527,75.093918 76.291443,75.815880 
	C75.516045,77.221985 74.989655,78.955986 73.852066,80.060432 
	C72.054436,81.805710 71.498573,83.222176 74.333000,85.245880 
M60.575100,167.929916 
	C59.233101,166.850662 57.891106,165.771408 56.549110,164.692154 
	C56.462940,166.406799 55.957130,168.239990 56.399300,169.805405 
	C56.924465,171.664642 58.122864,173.396103 59.280861,175.001663 
	C61.938091,178.685883 68.825432,179.081802 72.535797,176.413712 
	C74.570389,174.950653 77.250366,174.021240 79.757339,173.651672 
	C85.703232,172.775146 91.733765,172.483368 97.695160,171.692123 
	C98.866982,171.536575 99.881676,170.197159 100.968842,169.403748 
	C99.741837,168.604523 98.565353,167.228897 97.278191,167.116089 
	C93.674141,166.800232 90.024353,167.006088 85.856033,167.006088 
	C85.856033,165.528336 85.852676,164.090836 85.856598,162.653381 
	C85.876144,155.490540 86.210564,148.311035 85.830330,141.169540 
	C85.450462,134.034851 81.692070,131.489578 74.948433,132.788361 
	C73.735130,133.022018 72.073425,132.926880 71.141151,132.256760 
	C67.957344,129.968277 66.869362,130.073547 66.692467,134.017639 
	C66.298111,142.810333 66.393707,151.628113 66.426186,160.435165 
	C66.437805,163.585907 66.965736,166.734131 66.993271,169.885818 
	C67.001572,170.835602 66.084091,172.605774 65.650116,172.587509 
	C64.559151,172.541626 63.355171,171.860626 62.477665,171.106934 
	C61.769123,170.498337 61.470688,169.412262 60.575100,167.929916 
M112.192108,154.962158 
	C113.956657,154.345657 116.806656,152.727997 117.310486,153.274261 
	C120.712990,156.963333 122.530495,155.079147 124.447914,152.369583 
	C127.065735,152.556412 129.512573,151.994690 131.979080,151.539444 
	C132.568008,151.430771 133.354721,151.478073 133.826508,151.791138 
	C138.902481,155.159225 139.428879,150.062958 140.692719,147.695496 
	C142.362000,144.568573 142.329269,140.294296 138.330765,139.427063 
	C134.691330,138.637741 130.848145,132.353867 126.614983,138.730820 
	C126.339516,139.145782 124.750595,138.688858 123.519943,138.624252 
	C123.519943,137.068420 123.519943,135.677200 123.519943,134.291641 
	C127.053413,133.911926 130.390015,133.761215 133.638153,133.144547 
	C136.747086,132.554291 140.805054,134.626602 143.364883,129.216415 
	C140.829224,128.772675 138.759399,128.058899 136.712570,128.119659 
	C131.075897,128.286987 125.448181,128.768402 119.818283,129.145859 
	C116.336670,129.379303 112.828278,129.466095 109.394684,130.012848 
	C108.328522,130.182617 107.468224,131.645203 106.513680,132.515915 
	C107.691277,133.113358 108.830490,134.108994 110.054298,134.226959 
	C112.763756,134.488098 115.515717,134.308243 118.114166,134.308243 
	C118.986389,138.350403 118.582977,140.992142 114.002930,141.337082 
	C113.087448,141.406006 112.312996,143.347549 111.473503,144.425629 
	C112.579147,144.938004 113.642975,145.608047 114.802910,145.915710 
	C115.836159,146.189789 116.975792,146.062820 119.235313,146.166275 
	C116.430504,148.145126 114.778702,149.310501 112.145172,151.168518 
	C111.113632,149.213730 110.133575,147.180740 108.985405,145.247589 
	C108.312714,144.115005 107.372070,143.141586 106.551964,142.096558 
	C105.770370,143.403717 104.300034,144.727509 104.331108,146.015060 
	C104.442322,150.623276 106.807137,153.808228 112.192108,154.962158 
M162.814560,86.407875 
	C163.473419,81.129128 164.113770,75.847992 164.797241,70.572433 
	C165.301224,66.682510 168.674988,67.302673 170.952118,67.384201 
	C172.094955,67.425117 174.131424,69.897743 174.079575,71.203781 
	C173.847519,77.048187 173.009323,82.868523 172.513153,87.538078 
	C169.488861,88.346451 167.814667,88.793953 166.140488,89.241447 
	C167.114853,90.954010 167.689072,93.225098 169.143738,94.267303 
	C172.576065,96.726410 175.416992,95.100380 176.405960,91.447746 
	C177.915451,85.872780 179.047958,80.165764 179.880600,74.447845 
	C180.456085,70.495872 180.757828,65.376701 176.680496,63.729488 
	C172.014404,61.844421 166.513123,62.020615 161.369110,61.343906 
	C161.131760,61.312683 160.634338,61.671280 160.603638,61.895630 
	C160.177185,65.010544 153.348160,66.806656 158.686844,71.202103 
	C159.148605,71.582291 158.755417,73.110222 158.622375,74.086342 
	C157.500397,82.318207 156.264160,90.535461 155.236069,98.778786 
	C154.702347,103.058266 154.300827,107.382767 154.325409,111.684158 
	C154.331909,112.822693 156.138794,113.950951 157.119003,115.083923 
	C157.996826,113.899719 159.470856,112.801163 159.655258,111.517357 
	C160.812332,103.462685 161.682144,95.366753 162.814560,86.407875 
M134.357376,71.102821 
	C136.838043,68.204170 139.534897,65.454285 141.685776,62.328690 
	C142.471466,61.186951 141.959976,59.152573 142.040268,57.525425 
	C140.510315,58.029572 138.568542,58.108498 137.527145,59.117088 
	C134.320282,62.222916 131.358444,65.602402 128.515457,69.051971 
	C127.532280,70.244934 126.702133,71.928673 126.617821,73.433914 
	C126.274574,79.562210 126.208618,85.707649 126.118607,91.847916 
	C126.063202,95.627533 128.076263,96.687553 131.628647,96.114441 
	C137.159271,95.222176 142.761002,94.749626 148.267990,93.745018 
	C149.900925,93.447128 151.316849,91.959595 152.832230,91.017197 
	C151.208755,90.033104 149.588623,88.223763 147.961166,88.217148 
	C142.739120,88.195915 137.514328,88.841278 132.378876,89.222893 
	C132.378876,86.740143 132.378876,84.188881 132.378876,81.569267 
	C135.900238,81.150246 139.064575,80.986168 142.111145,80.299606 
	C143.225449,80.048485 144.060287,78.557259 145.022598,77.631752 
	C143.850006,76.772095 142.720566,75.262527 141.496277,75.181198 
	C138.475647,74.980537 135.411484,75.435127 131.038162,75.709564 
	C132.475708,73.623795 133.152435,72.641907 134.357376,71.102821 
M166.249542,168.129379 
	C166.379471,162.492004 171.331833,163.860199 174.247391,163.323715 
	C176.193314,162.965652 179.650421,164.627380 180.574539,166.369873 
	C181.938965,168.942581 180.737152,171.933960 177.216736,172.789581 
	C176.101883,173.060532 174.750366,172.680344 173.786133,173.159546 
	C172.782928,173.658096 172.116989,174.835327 171.303574,175.715805 
	C172.160904,176.400986 173.058945,177.716766 173.868652,177.664474 
	C177.816605,177.409500 181.779526,176.969742 185.641342,176.146133 
	C186.418671,175.980347 187.203125,173.874268 187.224365,172.649597 
	C187.249405,171.204559 186.086670,169.748413 186.073792,168.291458 
	C186.035309,163.937729 183.799225,161.029953 180.210861,159.203491 
	C175.895126,157.006805 167.965820,158.490936 164.398560,162.022736 
	C163.071899,163.336197 160.977280,165.322632 161.254395,166.543259 
	C162.189240,170.661057 163.901566,174.631180 165.642151,178.511765 
	C165.972321,179.247864 167.790588,179.316498 168.922226,179.693115 
	C169.110077,178.527710 169.706421,177.241730 169.405029,176.220749 
	C168.663361,173.708450 167.508911,171.317993 166.249542,168.129379 
M200.996658,174.151123 
	C200.245270,174.451187 199.493881,174.751236 198.136719,175.293213 
	C197.721054,171.895599 197.502518,168.806015 196.888107,165.797287 
	C196.674515,164.751343 195.481201,163.905457 194.735382,162.968216 
	C193.858429,163.944794 192.170319,164.989700 192.245819,165.886032 
	C192.562195,169.641937 193.051422,173.479843 194.301910,176.994324 
	C194.624939,177.902145 197.936066,177.815521 199.890335,178.059875 
	C203.954056,178.568024 208.019760,179.210770 212.101379,179.370148 
	C214.631500,179.468933 215.663223,178.161514 214.226593,175.484390 
	C213.456299,174.048981 212.844513,172.142380 213.101700,170.605850 
	C214.518539,162.141403 210.518173,156.965775 201.982971,157.170013 
	C199.931366,157.219101 196.176025,158.760345 196.178192,159.607712 
	C196.188721,163.703323 199.806168,161.892654 201.859985,161.904953 
	C206.009445,161.929825 208.803589,163.279694 208.850784,167.685089 
	C208.903366,172.591461 207.116623,174.011963 200.996658,174.151123 
M130.942444,175.722961 
	C140.094116,179.180679 146.555222,177.128281 149.667480,169.483765 
	C150.210587,168.149750 149.477951,166.296371 149.334518,164.682861 
	C148.103989,165.557922 146.421341,166.166214 145.720627,167.353851 
	C142.561050,172.708954 138.733246,174.386185 133.238388,171.311050 
	C129.435532,169.182831 126.385811,165.734268 122.888687,163.018433 
	C121.871216,162.228271 120.471939,161.929733 119.247681,161.405838 
	C119.181839,162.855453 118.468102,164.965256 119.159233,165.643524 
	C122.665886,169.084808 126.536995,172.154709 130.942444,175.722961 
M116.732063,106.945145 
	C115.363609,103.553909 114.221840,100.039749 112.489746,96.845711 
	C111.964249,95.876671 109.807419,95.792274 108.397774,95.302689 
	C108.147240,96.618484 107.397667,98.084671 107.740311,99.221718 
	C108.743843,102.551941 110.005096,105.838142 111.537682,108.958740 
	C112.149696,110.204910 113.736526,110.972328 114.879623,111.957680 
	C115.569397,110.550209 116.259171,109.142731 116.732063,106.945145 
M150.469147,161.137070 
	C151.788315,163.587921 152.953644,166.141830 154.495682,168.443344 
	C155.198914,169.492920 156.645874,170.044189 157.755493,170.821472 
	C158.156509,169.516861 159.245224,167.915970 158.833923,166.961349 
	C157.410492,163.657623 155.808990,160.305634 153.592392,157.514282 
	C152.207291,155.770020 148.232025,153.566757 147.752716,154.022705 
	C144.353424,157.256256 149.047455,158.366425 150.469147,161.137070 
M89.801514,110.895370 
	C90.818642,110.234528 92.791130,109.151711 92.712929,108.974663 
	C90.842873,104.740784 88.789780,100.584282 86.602448,96.503510 
	C86.483696,96.281975 84.505966,96.552155 84.107140,97.106667 
	C83.543518,97.890289 83.168159,99.380028 83.545059,100.171249 
	C85.235405,103.719803 87.220726,107.127853 89.801514,110.895370 
M104.833328,108.444420 
	C103.860878,104.892265 103.039894,101.285072 101.786079,97.835175 
	C101.540138,97.158463 99.347359,96.519684 98.548172,96.901360 
	C97.743660,97.285583 96.963142,99.123535 97.211502,100.044060 
	C97.937660,102.735504 98.921104,105.445992 100.360405,107.810097 
	C100.886475,108.674187 102.977394,108.585587 104.833328,108.444420 
M72.964378,106.773155 
	C75.009239,104.219299 77.256386,101.791504 78.974579,99.034096 
	C79.484116,98.216377 78.683647,95.398666 78.180672,95.314873 
	C72.475311,94.364342 72.890877,100.590210 69.811592,102.959358 
	C67.877182,104.447685 69.072594,106.582359 71.745491,107.016563 
	C71.906052,107.042648 72.076675,107.006805 72.964378,106.773155 
M104.480095,171.002762 
	C109.731117,171.259460 112.012604,167.026917 114.918694,163.864517 
	C115.135201,163.628906 113.855499,161.146210 113.028481,160.989441 
	C110.668549,160.542114 104.157204,167.740509 104.480095,171.002762 
M131.164688,160.301926 
	C132.366760,161.504089 133.522629,162.764526 134.845978,163.813705 
	C134.971420,163.913162 136.767593,162.619431 136.709274,162.091721 
	C136.577240,160.896912 136.008987,159.079224 135.180984,158.796906 
	C134.066116,158.416748 132.539764,159.243347 131.164688,160.301926 
M207.497208,196.994125 
	C207.586838,196.593384 207.676453,196.192642 207.766068,195.791901 
	C207.285324,195.947983 206.804581,196.104065 206.323822,196.260147 
	C206.562073,196.642227 206.800323,197.024292 207.497208,196.994125 
z"/>
<path fill="#0B6605" opacity="1.000000" stroke="none" 
	d="
M73.987328,85.102997 
	C71.498573,83.222176 72.054436,81.805710 73.852066,80.060432 
	C74.989655,78.955986 75.516045,77.221985 76.291443,75.815880 
	C73.651527,75.093918 70.782463,74.870644 70.657440,74.162735 
	C70.362083,72.490456 71.066536,70.427513 71.913879,68.809044 
	C74.147217,64.543251 76.503189,60.317230 79.175278,56.319294 
	C80.068504,54.982880 82.065865,54.384434 83.558502,53.448647 
	C83.748299,55.187157 84.208450,56.951893 84.043144,58.655960 
	C83.908699,60.041874 83.024673,61.355080 82.153656,63.479572 
	C89.234604,62.946163 95.646149,62.415146 102.065155,61.999146 
	C105.461876,61.779018 108.921478,61.001541 107.498390,66.973679 
	C106.734901,70.177727 108.221649,73.917976 108.747726,77.822662 
	C109.117188,77.886299 110.017097,77.824638 110.667778,78.197685 
	C112.098831,79.018150 113.403946,80.058266 114.760460,81.008720 
	C113.425171,81.945686 112.150269,82.990181 110.735115,83.784958 
	C109.640305,84.399818 108.369919,84.702042 107.419968,85.053558 
	C108.994949,87.280281 110.143867,88.904610 111.292778,90.528946 
	C109.243027,91.114723 107.205093,92.154114 105.141487,92.207817 
	C96.170036,92.441330 87.189964,92.481392 78.215691,92.372322 
	C75.983452,92.345177 73.761169,91.498726 71.534309,91.028862 
	C72.835396,89.323524 74.136482,87.618187 75.532936,85.787834 
	C75.464439,85.756897 74.898720,85.501389 73.987328,85.102997 
M80.191177,72.292755 
	C80.555588,73.370049 80.779930,74.525780 81.326210,75.501205 
	C81.812889,76.370193 82.655830,77.039658 83.341537,77.797180 
	C83.976830,76.998299 84.729836,76.262398 85.203583,75.377075 
	C85.490959,74.840042 85.106003,73.892014 85.442413,73.442329 
	C86.341385,72.240677 87.466766,71.208397 88.502174,70.108810 
	C89.319389,71.221947 90.322952,72.248032 90.896240,73.475128 
	C91.375298,74.500511 91.350761,75.761162 91.549232,76.917625 
	C91.931732,76.907486 92.314224,76.897346 92.696724,76.887207 
	C92.964981,74.115967 93.233231,71.344727 93.536819,68.208466 
	C88.636139,68.475273 84.017776,68.720993 79.409836,69.094940 
	C79.378059,69.097519 79.489693,70.867363 80.191177,72.292755 
M102.615738,74.808258 
	C102.728447,72.690796 102.841148,70.573334 102.967041,68.207932 
	C101.139732,68.207932 99.739464,68.207932 98.564705,68.207932 
	C98.695030,70.789879 98.711037,73.105385 98.981194,75.390846 
	C99.077599,76.206375 99.789619,76.949135 100.220642,77.725105 
	C100.953918,77.023788 101.687195,76.322464 102.615738,74.808258 
z"/>
<path fill="#086403" opacity="1.000000" stroke="none" 
	d="
M60.782707,168.233978 
	C61.470688,169.412262 61.769123,170.498337 62.477665,171.106934 
	C63.355171,171.860626 64.559151,172.541626 65.650116,172.587509 
	C66.084091,172.605774 67.001572,170.835602 66.993271,169.885818 
	C66.965736,166.734131 66.437805,163.585907 66.426186,160.435165 
	C66.393707,151.628113 66.298111,142.810333 66.692467,134.017639 
	C66.869362,130.073547 67.957344,129.968277 71.141151,132.256760 
	C72.073425,132.926880 73.735130,133.022018 74.948433,132.788361 
	C81.692070,131.489578 85.450462,134.034851 85.830330,141.169540 
	C86.210564,148.311035 85.876144,155.490540 85.856598,162.653381 
	C85.852676,164.090836 85.856033,165.528336 85.856033,167.006088 
	C90.024353,167.006088 93.674141,166.800232 97.278191,167.116089 
	C98.565353,167.228897 99.741837,168.604523 100.968842,169.403748 
	C99.881676,170.197159 98.866982,171.536575 97.695160,171.692123 
	C91.733765,172.483368 85.703232,172.775146 79.757339,173.651672 
	C77.250366,174.021240 74.570389,174.950653 72.535797,176.413712 
	C68.825432,179.081802 61.938091,178.685883 59.280861,175.001663 
	C58.122864,173.396103 56.924465,171.664642 56.399300,169.805405 
	C55.957130,168.239990 56.462940,166.406799 56.549110,164.692154 
	C57.891106,165.771408 59.233101,166.850662 60.782707,168.233978 
M81.019638,147.119232 
	C81.030556,145.305679 81.145508,143.485565 81.031845,141.679855 
	C80.750687,137.213379 79.314194,136.475586 74.869751,137.682587 
	C69.387573,139.171402 71.072548,143.098373 71.074059,146.297943 
	C74.445206,146.910141 77.379677,147.443039 80.187798,148.774673 
	C78.127586,149.738449 76.026848,150.626343 74.023422,151.696426 
	C72.940468,152.274857 72.023735,153.164474 71.032021,153.913681 
	C72.300003,154.160675 73.643494,154.796768 74.819252,154.568588 
	C76.871735,154.170258 78.820999,153.240082 81.087753,152.435455 
	C80.967049,150.875900 80.854866,149.426529 81.019638,147.119232 
M75.796867,159.175735 
	C74.275276,159.651215 72.753685,160.126709 71.226784,160.603851 
	C71.592720,163.946243 71.927658,167.005478 72.262917,170.067688 
	C81.482430,168.822189 82.486893,167.281235 80.283562,157.890182 
	C79.039742,158.259003 77.814575,158.622299 75.796867,159.175735 
z"/>
<path fill="#0A6504" opacity="1.000000" stroke="none" 
	d="
M111.827332,154.975983 
	C106.807137,153.808228 104.442322,150.623276 104.331108,146.015060 
	C104.300034,144.727509 105.770370,143.403717 106.551964,142.096558 
	C107.372070,143.141586 108.312714,144.115005 108.985405,145.247589 
	C110.133575,147.180740 111.113632,149.213730 112.145172,151.168518 
	C114.778702,149.310501 116.430504,148.145126 119.235313,146.166275 
	C116.975792,146.062820 115.836159,146.189789 114.802910,145.915710 
	C113.642975,145.608047 112.579147,144.938004 111.473511,144.425629 
	C112.312996,143.347549 113.087448,141.406006 114.002930,141.337082 
	C118.582977,140.992142 118.986389,138.350403 118.114166,134.308243 
	C115.515717,134.308243 112.763756,134.488098 110.054298,134.226959 
	C108.830490,134.108994 107.691277,133.113358 106.513687,132.515915 
	C107.468224,131.645203 108.328522,130.182617 109.394684,130.012848 
	C112.828278,129.466095 116.336670,129.379303 119.818283,129.145859 
	C125.448181,128.768402 131.075897,128.286987 136.712570,128.119659 
	C138.759399,128.058899 140.829224,128.772675 143.364883,129.216415 
	C140.805054,134.626602 136.747086,132.554291 133.638153,133.144547 
	C130.390015,133.761215 127.053413,133.911926 123.519943,134.291641 
	C123.519943,135.677200 123.519943,137.068420 123.519943,138.624252 
	C124.750595,138.688858 126.339516,139.145782 126.614983,138.730820 
	C130.848145,132.353867 134.691330,138.637741 138.330765,139.427063 
	C142.329269,140.294296 142.362000,144.568573 140.692719,147.695496 
	C139.428879,150.062958 138.902481,155.159225 133.826508,151.791138 
	C133.354721,151.478073 132.568008,151.430771 131.979080,151.539444 
	C129.512573,151.994690 127.065735,152.556412 124.447914,152.369583 
	C122.530495,155.079147 120.712990,156.963333 117.310486,153.274261 
	C116.806656,152.727997 113.956657,154.345657 111.827332,154.975983 
z"/>
<path fill="#0A6504" opacity="1.000000" stroke="none" 
	d="
M162.730774,86.846176 
	C161.682144,95.366753 160.812332,103.462685 159.655258,111.517357 
	C159.470856,112.801163 157.996826,113.899719 157.119003,115.083923 
	C156.138794,113.950951 154.331909,112.822693 154.325409,111.684158 
	C154.300827,107.382767 154.702347,103.058266 155.236069,98.778786 
	C156.264160,90.535461 157.500397,82.318207 158.622375,74.086342 
	C158.755417,73.110222 159.148605,71.582291 158.686844,71.202103 
	C153.348160,66.806656 160.177185,65.010544 160.603638,61.895630 
	C160.634338,61.671280 161.131760,61.312683 161.369110,61.343906 
	C166.513123,62.020615 172.014404,61.844421 176.680496,63.729488 
	C180.757828,65.376701 180.456085,70.495872 179.880600,74.447845 
	C179.047958,80.165764 177.915451,85.872780 176.405960,91.447746 
	C175.416992,95.100380 172.576065,96.726410 169.143738,94.267303 
	C167.689072,93.225098 167.114853,90.954010 166.140488,89.241447 
	C167.814667,88.793953 169.488861,88.346451 172.513153,87.538078 
	C173.009323,82.868523 173.847519,77.048187 174.079575,71.203781 
	C174.131424,69.897743 172.094955,67.425117 170.952118,67.384201 
	C168.674988,67.302673 165.301224,66.682510 164.797241,70.572433 
	C164.113770,75.847992 163.473419,81.129128 162.730774,86.846176 
z"/>
<path fill="#076403" opacity="1.000000" stroke="none" 
	d="
M44.496452,161.337936 
	C41.794456,161.261597 38.768879,165.174713 36.733696,161.254303 
	C36.368885,160.551559 40.438702,157.546707 42.674950,155.399307 
	C41.659668,152.555664 40.179089,149.223724 39.372639,145.735916 
	C39.064110,144.401535 40.297184,142.710709 40.827751,141.182312 
	C41.853378,142.262985 43.208954,143.183487 43.829144,144.460999 
	C44.818340,146.498596 45.318321,148.773712 47.113792,150.902954 
	C47.113792,147.279953 46.710979,143.597229 47.236721,140.052200 
	C47.686069,137.022263 44.697109,131.520737 49.599415,131.445419 
	C53.972507,131.378220 51.195679,136.851120 51.954079,139.770187 
	C52.274208,141.002380 52.007431,142.387039 52.007431,143.169983 
	C53.614422,142.522354 55.181683,141.890732 56.748940,141.259109 
	C56.937042,142.778564 57.366932,144.316452 57.252914,145.812897 
	C57.105717,147.744797 56.523613,149.643555 56.236446,151.034973 
	C58.648052,151.921097 60.781906,152.705170 62.915764,153.489227 
	C61.038700,154.711136 58.590836,155.538437 57.412231,157.243225 
	C55.416027,160.130615 53.399414,163.450775 52.902626,166.812332 
	C52.310844,170.816635 53.548000,175.058853 53.503819,179.192795 
	C53.486759,180.788345 52.127556,182.369583 51.379837,183.957336 
	C50.559612,182.621414 49.308235,181.375443 49.006931,179.931259 
	C48.333691,176.704315 48.134129,173.378555 47.734455,170.033173 
	C45.831337,171.532516 43.917667,173.040176 42.004002,174.547836 
	C41.401714,174.073837 40.799427,173.599854 40.197140,173.125870 
	C41.842300,169.728943 43.487465,166.332031 45.392387,162.446442 
	C45.266918,161.751160 44.881683,161.544556 44.496452,161.337936 
M47.155991,154.728241 
	C47.037159,154.892838 46.918324,155.057449 46.799484,155.222031 
	C46.973248,155.118011 47.147011,155.013992 47.155991,154.728241 
z"/>
<path fill="#0A6504" opacity="1.000000" stroke="none" 
	d="
M134.093262,71.381424 
	C133.152435,72.641907 132.475708,73.623795 131.038162,75.709564 
	C135.411484,75.435127 138.475647,74.980537 141.496277,75.181198 
	C142.720566,75.262527 143.850006,76.772095 145.022598,77.631760 
	C144.060287,78.557259 143.225449,80.048485 142.111145,80.299606 
	C139.064575,80.986168 135.900238,81.150246 132.378876,81.569267 
	C132.378876,84.188881 132.378876,86.740143 132.378876,89.222893 
	C137.514328,88.841278 142.739120,88.195915 147.961166,88.217148 
	C149.588623,88.223763 151.208755,90.033104 152.832230,91.017197 
	C151.316849,91.959595 149.900925,93.447128 148.267990,93.745018 
	C142.761002,94.749626 137.159271,95.222176 131.628647,96.114441 
	C128.076263,96.687553 126.063202,95.627533 126.118607,91.847916 
	C126.208618,85.707649 126.274574,79.562210 126.617821,73.433914 
	C126.702133,71.928673 127.532280,70.244934 128.515457,69.051971 
	C131.358444,65.602402 134.320282,62.222916 137.527145,59.117088 
	C138.568542,58.108498 140.510315,58.029572 142.040268,57.525421 
	C141.959976,59.152573 142.471466,61.186951 141.685776,62.328690 
	C139.534897,65.454285 136.838043,68.204170 134.093262,71.381424 
z"/>
<path fill="#0A6604" opacity="1.000000" stroke="none" 
	d="
M176.262329,133.736115 
	C175.548187,131.202820 176.288437,129.592484 179.022629,128.981934 
	C181.910294,128.337112 184.723984,127.326508 187.628708,126.799133 
	C195.377121,125.392387 200.376968,130.393799 199.229340,138.242783 
	C197.548065,149.741516 197.548050,149.744873 186.273560,149.716736 
	C184.284256,149.711761 182.291168,149.735703 180.306549,149.625549 
	C174.284210,149.291260 169.334808,140.207138 172.359314,134.892853 
	C172.681000,134.327637 174.047852,134.357239 175.430695,134.589554 
	C176.360886,138.169174 176.790192,141.270126 177.290070,144.880798 
	C181.262482,144.880798 185.085205,145.124695 188.850922,144.767502 
	C190.485504,144.612473 193.113739,143.464218 193.359726,142.343323 
	C194.030289,139.287933 194.158707,135.888046 193.426407,132.887070 
	C193.205414,131.981445 189.416504,131.416000 187.346664,131.607971 
	C183.618179,131.953766 179.953598,132.988922 176.262329,133.736115 
z"/>
<path fill="#076403" opacity="1.000000" stroke="none" 
	d="
M166.385010,168.503967 
	C167.508911,171.317993 168.663361,173.708450 169.405029,176.220749 
	C169.706421,177.241730 169.110077,178.527710 168.922241,179.693115 
	C167.790588,179.316498 165.972321,179.247864 165.642151,178.511765 
	C163.901566,174.631180 162.189240,170.661057 161.254395,166.543259 
	C160.977280,165.322632 163.071899,163.336197 164.398560,162.022736 
	C167.965820,158.490936 175.895126,157.006805 180.210861,159.203491 
	C183.799225,161.029953 186.035309,163.937729 186.073792,168.291458 
	C186.086670,169.748413 187.249405,171.204559 187.224365,172.649597 
	C187.203125,173.874268 186.418671,175.980347 185.641342,176.146133 
	C181.779526,176.969742 177.816605,177.409500 173.868652,177.664474 
	C173.058945,177.716766 172.160904,176.400986 171.303574,175.715805 
	C172.116989,174.835327 172.782928,173.658096 173.786133,173.159546 
	C174.750366,172.680344 176.101883,173.060532 177.216736,172.789581 
	C180.737152,171.933960 181.938965,168.942581 180.574539,166.369873 
	C179.650421,164.627380 176.193314,162.965652 174.247391,163.323715 
	C171.331833,163.860199 166.379471,162.492004 166.385010,168.503967 
z"/>
<path fill="#096504" opacity="1.000000" stroke="none" 
	d="
M201.411896,174.084961 
	C207.116623,174.011963 208.903366,172.591461 208.850784,167.685089 
	C208.803589,163.279694 206.009445,161.929825 201.859985,161.904953 
	C199.806168,161.892654 196.188721,163.703323 196.178192,159.607712 
	C196.176025,158.760345 199.931366,157.219101 201.982971,157.170013 
	C210.518173,156.965775 214.518539,162.141403 213.101700,170.605850 
	C212.844513,172.142380 213.456299,174.048981 214.226593,175.484390 
	C215.663223,178.161514 214.631500,179.468933 212.101379,179.370148 
	C208.019760,179.210770 203.954056,178.568024 199.890335,178.059875 
	C197.936066,177.815521 194.624939,177.902145 194.301910,176.994324 
	C193.051422,173.479843 192.562195,169.641937 192.245819,165.886032 
	C192.170319,164.989700 193.858429,163.944794 194.735382,162.968201 
	C195.481201,163.905457 196.674515,164.751343 196.888107,165.797287 
	C197.502518,168.806015 197.721054,171.895599 198.136719,175.293213 
	C199.493881,174.751236 200.245270,174.451187 201.411896,174.084961 
z"/>
<path fill="#096504" opacity="1.000000" stroke="none" 
	d="
M130.611420,175.538849 
	C126.536995,172.154709 122.665886,169.084808 119.159233,165.643524 
	C118.468102,164.965256 119.181839,162.855453 119.247681,161.405838 
	C120.471939,161.929733 121.871216,162.228271 122.888687,163.018433 
	C126.385811,165.734268 129.435532,169.182831 133.238388,171.311050 
	C138.733246,174.386185 142.561050,172.708954 145.720627,167.353851 
	C146.421341,166.166214 148.103989,165.557922 149.334534,164.682861 
	C149.477951,166.296371 150.210587,168.149750 149.667480,169.483765 
	C146.555222,177.128281 140.094116,179.180679 130.611420,175.538849 
z"/>
<path fill="#0B6605" opacity="1.000000" stroke="none" 
	d="
M116.840500,107.340195 
	C116.259171,109.142731 115.569397,110.550209 114.879623,111.957680 
	C113.736526,110.972328 112.149696,110.204910 111.537682,108.958740 
	C110.005096,105.838142 108.743843,102.551941 107.740311,99.221718 
	C107.397667,98.084671 108.147240,96.618484 108.397774,95.302689 
	C109.807419,95.792274 111.964249,95.876671 112.489746,96.845711 
	C114.221840,100.039749 115.363609,103.553909 116.840500,107.340195 
z"/>
<path fill="#0C6705" opacity="1.000000" stroke="none" 
	d="
M150.249176,160.853745 
	C149.047455,158.366425 144.353424,157.256256 147.752716,154.022705 
	C148.232025,153.566757 152.207291,155.770020 153.592392,157.514282 
	C155.808990,160.305634 157.410492,163.657623 158.833923,166.961349 
	C159.245224,167.915970 158.156509,169.516861 157.755493,170.821472 
	C156.645874,170.044189 155.198914,169.492920 154.495682,168.443344 
	C152.953644,166.141830 151.788315,163.587921 150.249176,160.853745 
z"/>
<path fill="#0C6705" opacity="1.000000" stroke="none" 
	d="
M89.450562,110.740982 
	C87.220726,107.127853 85.235405,103.719803 83.545059,100.171249 
	C83.168159,99.380028 83.543518,97.890289 84.107140,97.106667 
	C84.505966,96.552155 86.483696,96.281975 86.602448,96.503510 
	C88.789780,100.584282 90.842873,104.740784 92.712929,108.974663 
	C92.791130,109.151711 90.818642,110.234528 89.450562,110.740982 
z"/>
<path fill="#0C6705" opacity="1.000000" stroke="none" 
	d="
M104.593880,108.688004 
	C102.977394,108.585587 100.886475,108.674187 100.360405,107.810097 
	C98.921104,105.445992 97.937660,102.735504 97.211502,100.044060 
	C96.963142,99.123535 97.743660,97.285583 98.548172,96.901360 
	C99.347359,96.519684 101.540138,97.158463 101.786079,97.835175 
	C103.039894,101.285072 103.860878,104.892265 104.593880,108.688004 
z"/>
<path fill="#0A6504" opacity="1.000000" stroke="none" 
	d="
M72.603500,106.886475 
	C72.076675,107.006805 71.906052,107.042648 71.745491,107.016563 
	C69.072594,106.582359 67.877182,104.447685 69.811592,102.959358 
	C72.890877,100.590210 72.475311,94.364342 78.180672,95.314873 
	C78.683647,95.398666 79.484116,98.216377 78.974579,99.034096 
	C77.256386,101.791504 75.009239,104.219299 72.603500,106.886475 
z"/>
<path fill="#096504" opacity="1.000000" stroke="none" 
	d="
M104.261452,170.763779 
	C104.157204,167.740509 110.668549,160.542114 113.028481,160.989441 
	C113.855499,161.146210 115.135201,163.628906 114.918694,163.864517 
	C112.012604,167.026917 109.731117,171.259460 104.261452,170.763779 
z"/>
<path fill="#0C6705" opacity="1.000000" stroke="none" 
	d="
M131.177338,159.926971 
	C132.539764,159.243347 134.066116,158.416748 135.180984,158.796906 
	C136.008987,159.079224 136.577240,160.896912 136.709274,162.091721 
	C136.767593,162.619431 134.971420,163.913162 134.845978,163.813705 
	C133.522629,162.764526 132.366760,161.504089 131.177338,159.926971 
z"/>
<path fill="#0C6705" opacity="1.000000" stroke="none" 
	d="
M207.267883,197.200241 
	C206.800323,197.024292 206.562073,196.642227 206.323822,196.260147 
	C206.804581,196.104065 207.285324,195.947983 207.766068,195.791901 
	C207.676453,196.192642 207.586838,196.593384 207.267883,197.200241 
z"/>
<path fill="#ABBE4A" opacity="1.000000" stroke="none" 
	d="
M79.862778,72.052376 
	C79.489693,70.867363 79.378059,69.097519 79.409836,69.094940 
	C84.017776,68.720993 88.636139,68.475273 93.536819,68.208466 
	C93.233231,71.344727 92.964981,74.115967 92.696724,76.887207 
	C92.314224,76.897346 91.931732,76.907486 91.549232,76.917625 
	C91.350761,75.761162 91.375298,74.500511 90.896240,73.475128 
	C90.322952,72.248032 89.319389,71.221947 88.502174,70.108810 
	C87.466766,71.208397 86.341385,72.240677 85.442413,73.442329 
	C85.106003,73.892014 85.490959,74.840042 85.203583,75.377075 
	C84.729836,76.262398 83.976830,76.998299 83.341537,77.797180 
	C82.655830,77.039658 81.812889,76.370193 81.326210,75.501205 
	C80.779930,74.525780 80.555588,73.370049 79.862778,72.052376 
z"/>
<path fill="#B0C04C" opacity="1.000000" stroke="none" 
	d="
M102.518105,75.214706 
	C101.687195,76.322464 100.953918,77.023788 100.220642,77.725105 
	C99.789619,76.949135 99.077599,76.206375 98.981194,75.390846 
	C98.711037,73.105385 98.695030,70.789879 98.564705,68.207932 
	C99.739464,68.207932 101.139732,68.207932 102.967041,68.207932 
	C102.841148,70.573334 102.728447,72.690796 102.518105,75.214706 
z"/>
<path fill="#B6C34E" opacity="1.000000" stroke="none" 
	d="
M76.193146,159.080658 
	C77.814575,158.622299 79.039742,158.259003 80.283562,157.890182 
	C82.486893,167.281235 81.482430,168.822189 72.262917,170.067688 
	C71.927658,167.005478 71.592720,163.946243 71.226784,160.603851 
	C72.753685,160.126709 74.275276,159.651215 76.193146,159.080658 
z"/>
<path fill="#B6C34E" opacity="1.000000" stroke="none" 
	d="
M80.314148,147.975937 
	C77.379677,147.443039 74.445206,146.910141 71.074059,146.297943 
	C71.072548,143.098373 69.387573,139.171402 74.869751,137.682587 
	C79.314194,136.475586 80.750687,137.213379 81.031845,141.679855 
	C81.145508,143.485565 81.030556,145.305679 80.774048,147.540802 
	C80.528450,147.962372 80.314148,147.975937 80.314148,147.975937 
z"/>
<path fill="#ABBE4A" opacity="1.000000" stroke="none" 
	d="
M80.250977,148.375305 
	C80.314148,147.975937 80.528450,147.962372 80.635567,147.969757 
	C80.854866,149.426529 80.967049,150.875900 81.087753,152.435455 
	C78.820999,153.240082 76.871735,154.170258 74.819252,154.568588 
	C73.643494,154.796768 72.300003,154.160675 71.032021,153.913696 
	C72.023735,153.164474 72.940468,152.274857 74.023422,151.696426 
	C76.026848,150.626343 78.127586,149.738449 80.250977,148.375305 
z"/>
<path fill="#0A6504" opacity="1.000000" stroke="none" 
	d="
M47.238380,154.819092 
	C47.147011,155.013992 46.973248,155.118011 46.799484,155.222046 
	C46.918324,155.057449 47.037159,154.892838 47.238380,154.819092 
z"/>
<path fill="#BCC651" opacity="1.000000" stroke="none" 
	d="
M44.677032,161.566864 
	C44.881683,161.544556 45.266918,161.751160 45.447365,162.095764 
	C45.114250,162.087769 44.985931,161.941772 44.677032,161.566864 
z"/>
<path fill="#B6C34E" opacity="1.000000" stroke="none" 
	d="
M176.126984,133.863861 
	C179.953598,132.988922 183.618179,131.953766 187.346664,131.607971 
	C189.416504,131.416000 193.205414,131.981445 193.426407,132.887070 
	C194.158707,135.888046 194.030289,139.287933 193.359726,142.343323 
	C193.113739,143.464218 190.485504,144.612473 188.850922,144.767502 
	C185.085205,145.124695 181.262482,144.880798 177.290070,144.880798 
	C176.790192,141.270126 176.360886,138.169174 175.834381,134.665710 
	C175.737183,134.263214 175.991653,133.991592 176.126984,133.863861 
z"/>
</svg>